<svg width="20" height="20" viewBox="0 0 20 20" fill="none" xmlns="http://www.w3.org/2000/svg">
<path d="M7.5 16.8769H3.75C3.58424 16.8769 3.42527 16.811 3.30806 16.6938C3.19085 16.5766 3.125 16.4176 3.125 16.2519V12.7607C3.125 12.6787 3.14117 12.5974 3.17258 12.5216C3.20398 12.4457 3.25002 12.3768 3.30806 12.3188L12.6831 2.9438C12.8003 2.82659 12.9592 2.76074 13.125 2.76074C13.2908 2.76074 13.4497 2.82659 13.5669 2.9438L17.0581 6.43492C17.1753 6.55213 17.2411 6.7111 17.2411 6.87686C17.2411 7.04262 17.1753 7.20159 17.0581 7.3188L7.5 16.8769ZM7.5 16.8769H16.875M7.5 16.8769L3.16477 12.5416M10.625 5.00186L15 9.37686" stroke="#71717A" stroke-linecap="round" stroke-linejoin="round"/>
</svg>
