<svg width="140" height="34" viewBox="0 0 140 34" fill="none" xmlns="http://www.w3.org/2000/svg">
<path d="M47.6363 9.48845C48.2037 10.217 48.4874 11.0503 48.4874 11.9858C48.4874 13.3354 48.0146 14.4065 47.0713 15.1963C46.1281 15.9862 44.8117 16.3798 43.1247 16.3798H35.6019V0.230103H42.8716C44.5126 0.230103 45.7958 0.605856 46.7263 1.35736C47.6541 2.10887 48.1168 3.12877 48.1168 4.41707C48.1168 5.36795 47.8663 6.1578 47.3704 6.78661C46.872 7.41542 46.2074 7.85252 45.3792 8.09791C46.3147 8.29729 47.0662 8.76251 47.6337 9.48845H47.6363ZM39.5384 6.76104H42.115C42.7591 6.76104 43.255 6.62046 43.6001 6.33417C43.9452 6.05044 44.1164 5.63379 44.1164 5.08166C44.1164 4.52954 43.9452 4.10777 43.6001 3.81637C43.255 3.52497 42.7591 3.37927 42.115 3.37927H39.5384V6.76104ZM43.9656 12.7552C44.326 12.4561 44.5075 12.0241 44.5075 11.4567C44.5075 10.8892 44.3184 10.4445 43.9426 10.1224C43.5669 9.8003 43.048 9.63926 42.3885 9.63926H39.5358V13.2051H42.4345C43.094 13.2051 43.6027 13.0568 43.9631 12.7578L43.9656 12.7552Z" fill="#33E2A0"/>
<path d="M54.699 13.3431H59.8522V16.3798H50.7651V0.230103H54.699V13.3431Z" fill="#33E2A0"/>
<path d="M65.1995 15.4826C63.9343 14.7771 62.9297 13.7904 62.1859 12.5251C61.442 11.2598 61.0688 9.83859 61.0688 8.25889C61.0688 6.6792 61.4395 5.26054 62.1859 4.00292C62.9297 2.7453 63.9343 1.76373 65.1995 1.05824C66.4648 0.352744 67.8554 0 69.3737 0C70.8921 0 72.2826 0.352744 73.5479 1.05824C74.8132 1.76373 75.8101 2.7453 76.5386 4.00292C77.2671 5.26054 77.6301 6.6792 77.6301 8.25889C77.6301 9.83859 77.262 11.2624 76.5258 12.5251C75.7896 13.7904 74.7927 14.7771 73.5351 15.4826C72.2775 16.188 70.8895 16.5408 69.3712 16.5408C67.8528 16.5408 66.4623 16.188 65.197 15.4826H65.1995ZM72.4692 11.6637C73.2437 10.8048 73.6297 9.66988 73.6297 8.25889C73.6297 6.8479 73.2412 5.69252 72.4692 4.84388C71.6947 3.99269 70.662 3.56581 69.3737 3.56581C68.0854 3.56581 67.0297 3.98758 66.2552 4.83111C65.4807 5.67463 65.0947 6.81723 65.0947 8.25889C65.0947 9.70056 65.4807 10.8253 66.2552 11.6765C67.0297 12.5276 68.0675 12.952 69.3737 12.952C70.6799 12.952 71.6921 12.5225 72.4692 11.6637Z" fill="#33E2A0"/>
<path d="M90.5411 5.33718C90.2497 4.80039 89.8305 4.39141 89.2886 4.10768C88.7442 3.82395 88.1051 3.6808 87.3664 3.6808C86.0934 3.6808 85.0735 4.10001 84.3067 4.93587C83.5399 5.77172 83.1564 6.88876 83.1564 8.28185C83.1564 9.76953 83.5603 10.9326 84.3655 11.7684C85.1707 12.6043 86.2775 13.0209 87.6885 13.0209C88.6547 13.0209 89.4701 12.7756 90.1373 12.2848C90.8044 11.794 91.2901 11.0885 91.5968 10.1683H86.6047V7.26962H95.1626V10.9275C94.8712 11.909 94.3753 12.8216 93.6775 13.6651C92.9797 14.5086 92.0927 15.1911 91.0217 15.7126C89.9481 16.234 88.7365 16.4947 87.3868 16.4947C85.7918 16.4947 84.368 16.1471 83.1181 15.4467C81.8681 14.7489 80.8943 13.7801 80.1964 12.5378C79.4986 11.2955 79.1484 9.87689 79.1484 8.28185C79.1484 6.68682 79.496 5.26561 80.1964 4.01565C80.8943 2.7657 81.863 1.79181 83.1053 1.09398C84.3476 0.396157 85.7663 0.0485229 87.3613 0.0485229C89.2937 0.0485229 90.922 0.516294 92.2486 1.45184C93.5753 2.38739 94.452 3.68335 94.884 5.33973H90.536L90.5411 5.33718Z" fill="#33E2A0"/>
<path d="M108.071 5.33718C107.78 4.80039 107.361 4.39141 106.819 4.10768C106.274 3.82395 105.635 3.6808 104.897 3.6808C103.624 3.6808 102.604 4.10001 101.837 4.93587C101.07 5.77172 100.687 6.88876 100.687 8.28185C100.687 9.76953 101.09 10.9326 101.896 11.7684C102.701 12.6043 103.808 13.0209 105.219 13.0209C106.185 13.0209 107 12.7756 107.667 12.2848C108.335 11.794 108.82 11.0885 109.127 10.1683H104.135V7.26962H112.693V10.9275C112.401 11.909 111.905 12.8216 111.208 13.6651C110.51 14.5086 109.623 15.1911 108.552 15.7126C107.478 16.234 106.267 16.4947 104.917 16.4947C103.322 16.4947 101.898 16.1471 100.648 15.4467C99.3982 14.7489 98.4243 13.7801 97.7265 12.5378C97.0287 11.2955 96.6785 9.87689 96.6785 8.28185C96.6785 6.68682 97.0261 5.26561 97.7265 4.01565C98.4243 2.7657 99.3931 1.79181 100.635 1.09398C101.878 0.396157 103.296 0.0485229 104.891 0.0485229C106.824 0.0485229 108.452 0.516294 109.779 1.45184C111.105 2.38739 111.982 3.68335 112.414 5.33973H108.066L108.071 5.33718Z" fill="#33E2A0"/>
<path d="M118.812 3.38182V6.64858H124.08V9.68527H118.812V13.2281H124.771V16.3798H114.878V0.230103H124.771V3.38182H118.812Z" fill="#33E2A0"/>
<path d="M135.56 16.3798L132.201 10.2834H131.258V16.3798H127.324V0.230103H133.927C135.2 0.230103 136.283 0.452491 137.181 0.89726C138.078 1.34203 138.747 1.95295 139.195 2.7249C139.64 3.49941 139.862 4.36339 139.862 5.31172C139.862 6.38529 139.558 7.34385 138.955 8.18738C138.349 9.0309 137.454 9.62904 136.273 9.98178L140 16.3773H135.56V16.3798ZM131.258 7.49977H133.697C134.417 7.49977 134.957 7.3234 135.32 6.97065C135.68 6.6179 135.859 6.11945 135.859 5.4753C135.859 4.83116 135.678 4.37872 135.32 4.02598C134.959 3.67323 134.417 3.49685 133.697 3.49685H131.258V7.49977Z" fill="#33E2A0"/>
<path d="M39.109 32.5193C38.0405 31.9186 37.1919 31.0878 36.5682 30.027C35.9419 28.9637 35.6301 27.7623 35.6301 26.4203C35.6301 25.0783 35.9419 23.8948 36.5682 22.8315C37.1944 21.7681 38.0405 20.9374 39.109 20.3393C40.1774 19.7411 41.3507 19.4395 42.6288 19.4395C43.9069 19.4395 45.0955 19.7386 46.1588 20.3393C47.2222 20.9399 48.0631 21.7707 48.6817 22.8315C49.3003 23.8948 49.6096 25.0911 49.6096 26.4203C49.6096 27.7495 49.3003 28.9662 48.6817 30.027C48.0631 31.0904 47.2171 31.9211 46.1486 32.5193C45.0801 33.12 43.9069 33.419 42.6288 33.419C41.3507 33.419 40.1774 33.12 39.109 32.5193ZM44.7989 30.4181C45.4252 30.0475 45.9134 29.5158 46.2662 28.8231C46.6189 28.1329 46.7953 27.3303 46.7953 26.4178C46.7953 25.5052 46.6189 24.7077 46.2662 24.0226C45.9134 23.3376 45.4252 22.8136 44.7989 22.4481C44.1727 22.0825 43.4493 21.901 42.6288 21.901C41.8083 21.901 41.0798 22.0825 40.4484 22.4481C39.817 22.8136 39.3237 23.3376 38.9709 24.0226C38.6182 24.7077 38.4418 25.5052 38.4418 26.4178C38.4418 27.3303 38.6182 28.1329 38.9709 28.8231C39.3237 29.5132 39.8145 30.0449 40.4484 30.4181C41.0798 30.7888 41.8083 30.9754 42.6288 30.9754C43.4493 30.9754 44.1727 30.7888 44.7989 30.4181Z" fill="white"/>
<path d="M54.3437 19.6338V28.0818C54.3437 29.0072 54.584 29.7152 55.0671 30.2034C55.5502 30.6917 56.2276 30.937 57.1018 30.937C57.976 30.937 58.6738 30.6917 59.1544 30.2034C59.6375 29.7152 59.8778 29.0072 59.8778 28.0818V19.6338H62.6358V28.0614C62.6358 29.2219 62.3853 30.2034 61.8818 31.0035C61.3808 31.8061 60.7085 32.4094 59.8675 32.8133C59.0266 33.2171 58.091 33.4191 57.0609 33.4191C56.0308 33.4191 55.1208 33.2171 54.2951 32.8133C53.4669 32.4094 52.8126 31.8061 52.3295 31.0035C51.8464 30.2009 51.6061 29.2219 51.6061 28.0614V19.6338H54.3437Z" fill="white"/>
<path d="M74.5626 19.6338V21.8423H70.9253V33.281H68.1876V21.8423H64.5502V19.6338H74.5626Z" fill="white"/>
<path d="M83.5961 33.2836L80.585 27.9643H79.2941V33.2836H76.5565V19.6338H81.679C82.7347 19.6338 83.6345 19.8204 84.3783 20.191C85.1222 20.5617 85.6794 21.0652 86.05 21.6966C86.4207 22.328 86.6073 23.036 86.6073 23.8182C86.6073 24.718 86.3465 25.5282 85.8251 26.2516C85.3036 26.975 84.5266 27.4735 83.499 27.747L86.7658 33.281H83.5987L83.5961 33.2836ZM79.2941 25.9117H81.5819C82.3257 25.9117 82.8779 25.7327 83.2434 25.3749C83.6089 25.017 83.7904 24.5186 83.7904 23.8795C83.7904 23.2405 83.6089 22.7676 83.2434 22.4225C82.8779 22.0775 82.3232 21.9036 81.5819 21.9036H79.2941V25.9117Z" fill="white"/>
<path d="M91.8269 21.8422V25.2649H96.4228V27.4351H91.8269V31.052H97.0082V33.281H89.0893V19.6133H97.0082V21.8422H91.8269Z" fill="white"/>
<path d="M107.862 30.6814H102.425L101.525 33.281H98.6493L103.557 19.6133H106.745L111.652 33.281H108.759L107.859 30.6814H107.862ZM107.118 28.4908L105.142 22.7803L103.166 28.4908H107.115H107.118Z" fill="white"/>
<path d="M113.738 22.8314C114.344 21.7681 115.172 20.9425 116.223 20.3469C117.271 19.7539 118.449 19.4573 119.753 19.4573C121.279 19.4573 122.613 19.8484 123.761 20.6306C124.908 21.4128 125.708 22.494 126.166 23.8769H123.017C122.705 23.2251 122.263 22.7369 121.698 22.4097C121.13 22.085 120.476 21.9215 119.732 21.9215C118.937 21.9215 118.229 22.1081 117.611 22.4787C116.992 22.8493 116.509 23.3759 116.164 24.0533C115.819 24.7307 115.645 25.5256 115.645 26.4382C115.645 27.3507 115.819 28.1303 116.164 28.8128C116.509 29.4979 116.992 30.0244 117.611 30.3976C118.229 30.7683 118.937 30.9549 119.732 30.9549C120.476 30.9549 121.13 30.7887 121.698 30.4564C122.265 30.1241 122.705 29.6333 123.017 28.979H126.166C125.708 30.3746 124.911 31.4584 123.771 32.2355C122.631 33.0126 121.291 33.3985 119.753 33.3985C118.449 33.3985 117.273 33.102 116.223 32.509C115.172 31.916 114.346 31.0903 113.738 30.0347C113.132 28.979 112.828 27.7801 112.828 26.4356C112.828 25.0911 113.132 23.8897 113.738 22.8289V22.8314Z" fill="white"/>
<path d="M139.834 19.6338V33.2836H137.096V27.476H131.25V33.2836H128.513V19.6338H131.25V25.2471H137.096V19.6338H139.834Z" fill="white"/>
<path d="M15.3369 31.9518C23.8072 31.9518 30.6737 25.0853 30.6737 16.615C30.6737 8.14465 23.8072 1.27811 15.3369 1.27811C6.86654 1.27811 0 8.14465 0 16.615C0 25.0853 6.86654 31.9518 15.3369 31.9518Z" fill="white"/>
<path d="M24.2834 13.2791C24.2834 13.591 24.0304 13.844 23.7134 13.844C23.4016 13.844 23.1485 13.5884 23.1485 13.274C23.1536 11.9142 22.6296 10.6335 21.6736 9.66731C21.6711 9.66476 21.6659 9.65964 21.6634 9.65709C20.7074 8.69853 19.4344 8.16686 18.0797 8.15919C17.7678 8.15919 17.5148 7.90357 17.5148 7.58917C17.5148 7.27732 17.7704 7.02426 18.0848 7.02426C19.7412 7.03193 21.2953 7.68119 22.4635 8.8519C22.4686 8.85701 22.4737 8.86213 22.4788 8.86724C23.6495 10.0482 24.2885 11.6151 24.2834 13.2791Z" fill="#5A34CD"/>
<path d="M22.0134 13.2689C22.0134 13.5833 21.7553 13.8338 21.4434 13.8338C21.1316 13.8338 20.8785 13.5782 20.8785 13.2638C20.8811 12.5098 20.5922 11.7991 20.0605 11.2623C19.5289 10.7256 18.8234 10.429 18.0693 10.4265C17.7549 10.4265 17.5044 10.1709 17.5044 9.85647C17.5044 9.54462 17.76 9.29156 18.0744 9.29156C19.1301 9.29668 20.1193 9.71077 20.8632 10.4572L20.8683 10.4623C21.6121 11.2138 22.0211 12.2107 22.016 13.2664L22.0134 13.2689Z" fill="#5A34CD"/>
<path d="M20.8684 10.4649C21.6123 11.2164 22.0212 12.2133 22.0161 13.2689C22.0161 13.5833 21.758 13.8339 21.4461 13.8339C21.1343 13.8339 20.8812 13.5782 20.8812 13.2638C20.8838 12.5098 20.5949 11.7992 20.0632 11.2624L20.8633 10.4572L20.8684 10.4623V10.4649Z" fill="#451CC0"/>
<path d="M24.2834 13.2792C24.2834 13.591 24.0304 13.8441 23.7134 13.8441C23.4016 13.8441 23.1485 13.5885 23.1485 13.2741C23.1536 11.9142 22.6296 10.6336 21.6736 9.66734C21.6711 9.66479 21.6659 9.65967 21.6634 9.65712L22.4635 8.85449C22.4635 8.85449 22.4737 8.86472 22.4788 8.86983C23.6495 10.0508 24.2885 11.6177 24.2834 13.2817V13.2792Z" fill="#451CC0"/>
<path d="M11.2854 23.4704C11.2701 23.4858 9.8974 24.861 9.88718 24.8712C9.73125 25.0271 9.48075 25.0246 9.32994 24.8712L7.91895 23.4577L7.90361 23.4423L6.50284 22.039C6.34948 21.8856 6.34948 21.6377 6.50284 21.4818L7.66078 20.3187L7.89594 20.0835C8.04931 19.9302 8.29981 19.9276 8.45318 20.0835L9.8565 21.4843L9.86928 21.4997L11.2854 22.9132C11.4388 23.0666 11.4388 23.3171 11.2854 23.4704Z" fill="#451CC0"/>
<path d="M11.2853 23.4704C11.27 23.4857 9.89735 24.8609 9.88713 24.8712C9.7312 25.0271 9.4807 25.0245 9.32989 24.8712L7.9189 23.4576L7.90356 23.4423L9.34267 22.0006L9.85646 21.4843L9.86923 21.4996L11.2853 22.9132C11.4387 23.0665 11.4387 23.317 11.2853 23.4704Z" fill="#5A34CD"/>
<path d="M17.7524 25.0426L16.7223 26.0752C16.5459 26.2542 16.2571 26.2542 16.0781 26.0752L13.113 23.1152C12.9341 22.9389 12.9341 22.65 13.113 22.4711L14.1431 21.4384C14.3195 21.2595 14.6084 21.2595 14.7873 21.4384L17.7524 24.3984C17.9313 24.5748 17.9313 24.8636 17.7524 25.0426Z" fill="#451CC0"/>
<path d="M15.5337 20.5718L14.7234 21.3847L13.0594 23.0513L12.1878 23.9229C11.9347 24.176 11.5206 24.1785 11.2675 23.9229L9.34276 22.0007L7.66082 20.3213L7.41544 20.0759C7.15982 19.8228 7.15982 19.4088 7.41544 19.1557L10.7614 15.8046L13.1463 18.1869L15.5337 20.5718Z" fill="#33E2A0"/>
<path d="M15.5338 20.5717L14.7235 21.3846L13.0594 23.0512L12.1878 23.9228C11.9347 24.1759 11.5206 24.1784 11.2676 23.9228L9.3428 22.0006L9.85659 21.4868L13.1463 18.1868L15.5338 20.5717Z" fill="#00CB7E"/>
<path d="M21.8525 18.9768L15.5338 20.5718L13.1463 18.1869L10.7614 15.8046L12.3463 9.48324C12.4562 8.95923 13.1029 8.76752 13.4837 9.14583L17.8317 13.4862L17.8368 13.4913L22.19 17.8367C22.5683 18.215 22.3766 18.8617 21.8551 18.9742L21.8525 18.9768Z" fill="#5A34CD"/>
<path d="M21.8525 18.9768L15.5337 20.5718L13.1463 18.187L17.8317 13.4888L17.8368 13.4939L22.1899 17.8393C22.5682 18.2176 22.3791 18.8643 21.8551 18.9768H21.8525Z" fill="#451CC0"/>
</svg>
