<svg width="18" height="18" viewBox="0 0 18 18" fill="none" xmlns="http://www.w3.org/2000/svg">
<g clip-path="url(#clip0_3430_2288)">
<path d="M9 0.75C7.36831 0.75 5.77325 1.23385 4.41655 2.14038C3.05984 3.0469 2.00242 4.33537 1.378 5.84286C0.753575 7.35035 0.590197 9.00915 0.908525 10.6095C1.22685 12.2098 2.01259 13.6798 3.16637 14.8336C4.32016 15.9874 5.79017 16.7731 7.39051 17.0915C8.99085 17.4098 10.6497 17.2464 12.1571 16.622C13.6646 15.9976 14.9531 14.9402 15.8596 13.5835C16.7661 12.2267 17.25 10.6317 17.25 9C17.25 6.81196 16.3808 4.71354 14.8336 3.16637C13.2865 1.61919 11.188 0.75 9 0.75ZM13.2803 7.28025L8.03025 12.5302C7.88961 12.6709 7.69888 12.7498 7.5 12.7498C7.30113 12.7498 7.1104 12.6709 6.96975 12.5302L4.71975 10.2802C4.58314 10.1388 4.50754 9.94935 4.50925 9.7527C4.51096 9.55605 4.58983 9.36794 4.72889 9.22889C4.86795 9.08983 5.05606 9.01095 5.2527 9.00924C5.44935 9.00753 5.6388 9.08313 5.78025 9.21975L7.5 10.9395L12.2198 6.21975C12.3612 6.08313 12.5507 6.00754 12.7473 6.00924C12.944 6.01095 13.1321 6.08983 13.2711 6.22889C13.4102 6.36794 13.4891 6.55605 13.4908 6.7527C13.4925 6.94935 13.4169 7.1388 13.2803 7.28025Z" fill="#A1A1AA"/>
</g>
<defs>
<clipPath id="clip0_3430_2288">
<rect width="18" height="18" fill="white"/>
</clipPath>
</defs>
</svg>
