<svg width="257" height="56" viewBox="0 0 257 56" fill="none" xmlns="http://www.w3.org/2000/svg">
<g clip-path="url(#clip0_2503_15646)">
<path d="M24.7162 0C16.7979 0 9.36113 3.94062 4.70646 10.6008C5.18798 10.6008 5.6695 10.6008 6.15101 10.6563C7.97008 10.7118 9.73564 11.1558 11.3407 11.9884C12.4107 12.5434 13.3738 13.3204 14.1763 14.2639C15.4068 15.707 16.4234 17.372 17.1724 19.0926C17.6004 20.0361 18.0284 20.9797 18.4029 21.9232C18.7775 22.8667 19.2055 23.8657 19.5265 24.8093C20.0615 26.1968 20.5965 27.6399 21.1315 29.0274C21.506 30.0264 21.8271 31.0255 22.2016 32.0245C22.6296 33.19 23.0576 34.3001 23.4856 35.4656L24.4487 38.0742C24.5022 38.2962 24.6092 38.4627 24.8232 38.5737C25.0372 38.6292 25.3047 38.5182 25.4117 38.2407C25.6257 37.6302 25.9467 37.0196 26.3212 36.5201C26.8562 35.5211 27.4448 34.5221 27.9798 33.523C28.6753 32.2465 29.4243 30.97 30.1198 29.6934C30.8154 28.4169 31.5644 27.0293 32.2599 25.6973C33.0625 24.1988 33.8115 22.7002 34.507 21.1462C34.9885 20.0916 35.4165 19.0371 35.791 17.9271C36.0051 17.261 36.2191 16.5395 36.3261 15.818C36.4866 15.0965 36.4866 14.3194 36.3796 13.5979C36.2726 13.0429 36.0586 12.4879 35.684 12.0439C35.149 11.3779 34.4 10.9338 33.651 10.6563C33.0625 10.4343 32.4204 10.2678 31.7784 10.1568C31.6714 10.1568 31.6179 10.1013 31.5644 10.0458C31.7249 9.99031 31.9389 9.93481 32.0994 9.99031L34.2395 9.7683C35.042 9.7128 35.8445 9.6573 36.7006 9.6573C37.3426 9.6018 38.0381 9.6573 38.6801 9.7683C39.0012 9.8238 39.3222 9.8238 39.6432 9.87931C41.0342 10.0458 42.3183 10.5453 43.3883 11.4334C43.9768 11.9884 44.4584 12.7099 44.6189 13.5424C44.8864 14.7635 44.8864 16.04 44.6724 17.261C44.5119 18.3711 42.2113 25.0313 41.8368 25.9748C41.5157 26.6963 41.1947 27.3623 40.8737 28.0839C40.3922 29.0274 39.9107 30.0264 39.4292 30.97C38.8407 32.1355 38.1986 33.301 37.5566 34.4666C37.0216 35.4101 36.5401 36.3536 36.0051 37.2417C35.2025 38.7402 34.3465 40.1832 33.4905 41.6818C32.7949 42.9028 31.9389 44.0129 30.9759 45.0119C30.0128 46.1219 28.7823 46.9545 27.4983 47.5095C26.3747 48.009 25.1977 48.1755 24.0206 47.9535C22.6296 47.7315 21.292 47.1765 20.222 46.2884C19.473 45.6224 18.831 44.7899 18.2959 43.9019C17.7074 42.8473 17.1724 41.7928 16.6909 40.6828C16.2094 39.6282 15.8349 38.5737 15.4068 37.4637C14.9788 36.2981 14.5508 35.0771 14.1763 33.9116C13.8553 32.968 13.5343 31.969 13.2133 31.0255C12.9458 30.3039 12.7317 29.6379 12.4642 28.9164C12.1432 28.0839 11.8222 27.3068 11.5012 26.5298C11.0732 25.4753 10.6452 24.4208 10.1637 23.3662C9.46813 21.7567 8.7191 20.2581 7.86307 18.7596C7.00704 17.2055 5.93701 15.818 4.70646 14.597C4.54596 14.4304 4.38545 14.3194 4.22495 14.1529C4.01094 13.9864 3.79693 13.8199 3.58292 13.7089C3.42242 13.5979 3.26191 13.4869 3.10141 13.4314C2.9944 13.6534 2.8339 13.9309 2.7269 14.1529C3.04791 14.3194 3.36892 14.5415 3.63643 14.7635C5.02748 15.9845 6.25802 17.372 7.22105 18.9816C7.97008 20.1471 8.6121 21.4237 9.20062 22.7002C9.62864 23.6437 10.0031 24.5873 10.3242 25.5863C10.3777 25.6418 10.3777 25.7528 10.3777 25.8083C10.2172 25.8083 10.1637 25.6418 10.1102 25.5863C9.20062 24.3653 8.18408 23.2552 7.11405 22.1452C5.56249 20.4801 3.74343 19.0926 1.81736 17.9826L1.28234 17.6495C-3.05131 30.97 3.95744 45.5114 16.9049 49.9515C29.8523 54.3917 43.8698 47.1765 48.15 33.745C52.4301 20.3136 45.4749 5.77218 32.5274 1.33204C30.0128 0.444014 27.3913 0 24.7162 0ZM33.2765 10.9893C34.4535 11.3779 35.4165 12.3214 35.791 13.5424C35.9516 14.1529 36.0051 14.819 35.8981 15.4295C35.684 16.595 35.363 17.7606 34.935 18.8151C34.7745 19.1481 34.614 19.4811 34.507 19.8696C34.4535 19.9251 34.4535 20.0361 34.3465 20.0361C34.2395 20.0361 34.293 19.9251 34.293 19.8696C34.186 18.7596 33.9185 17.6495 33.437 16.595C33.0625 15.6515 32.2599 14.93 31.3504 14.597C30.9224 14.4859 30.5479 14.4304 30.1198 14.4304C28.8358 14.5415 27.6053 14.9855 26.5352 15.7625C25.0372 16.7615 23.6996 17.9826 22.5226 19.4256C22.4691 19.4811 22.4156 19.5921 22.2551 19.5921C22.6831 18.9261 23.0576 18.2601 23.4321 17.594C24.3951 15.929 25.5187 14.4304 26.8562 13.0429C27.6053 12.2104 28.5148 11.5444 29.5313 10.9893C30.0128 10.7673 30.5479 10.6008 31.0829 10.6008C31.7784 10.6563 32.5274 10.7673 33.2765 10.9893Z" fill="white"/>
<path d="M256.298 11.6011C256.649 11.6011 256.941 11.9042 256.941 12.2678C256.941 15.2375 256.941 26.7526 256.882 31.8436C256.882 34.2678 256.298 36.4496 254.545 38.2072C253.611 39.1163 252.501 39.7223 251.274 40.086C249.463 40.6314 247.535 40.8133 245.607 40.5708C243.095 40.2072 241.342 38.692 239.998 36.6314L234.39 27.8436C232.988 25.6617 231.585 23.4799 230.183 21.2981C229.716 20.5102 228.956 20.0254 228.08 19.9648C227.613 19.9042 227.145 20.2072 227.029 20.7526C227.029 20.8133 227.029 20.8739 227.029 20.9345C227.029 21.1769 227.029 21.4193 227.029 21.6617C227.029 27.7223 227.029 33.7829 227.029 39.8436V40.5102C226.736 40.5102 226.561 40.5102 226.386 40.5102C224.166 40.5102 221.946 40.5102 219.667 40.5102C219.2 40.5102 219.025 40.389 219.025 39.9042C219.025 33.4193 219.025 26.9345 219.083 20.4496C219.083 19.2981 219.258 18.2072 219.609 17.1163C220.544 13.9648 222.822 12.4496 225.802 11.8436C227.437 11.4799 229.073 11.4193 230.709 11.7223C232.871 12.2072 234.799 13.6011 235.909 15.5405C239.18 20.6314 242.394 25.6617 245.665 30.692C246.074 31.2375 246.6 31.7223 247.184 32.0254C248.177 32.5102 248.937 31.9648 248.937 30.8739V15.1163C248.937 14.086 248.937 13.0557 248.937 12.0254C248.937 11.8436 249.171 11.5405 249.229 11.5405C250.748 11.6011 254.312 11.6011 256.298 11.6011Z" fill="white"/>
<path d="M198.455 11.6625C200.851 11.6625 203.246 11.6625 205.641 11.6625C207.511 11.6625 209.38 12.0261 211.133 12.814C214.229 14.1474 215.865 16.6322 216.274 20.0261C216.391 20.8746 216.391 21.7231 216.391 22.5716C216.391 25.7837 216.391 29.0564 216.391 32.2686C216.391 35.9049 214.755 38.3292 211.425 39.5413C209.38 40.2686 207.277 40.5716 205.115 40.5716C200.734 40.6322 196.294 40.6322 191.912 40.5716C189.692 40.6322 187.53 40.208 185.486 39.2989C182.681 38.1474 180.812 35.3595 180.636 32.2686C180.403 29.0564 180.52 25.8443 180.461 22.6322C180.461 21.8443 180.461 21.0564 180.578 20.2686C181.162 15.7837 183.441 13.1171 187.706 12.208C189.225 11.9049 190.744 11.7231 192.262 11.6625C194.366 11.5413 196.352 11.6019 198.455 11.6625ZM198.455 17.8443C196.235 17.8443 194.015 17.7837 191.737 17.8443C190.159 17.7837 188.816 18.9352 188.582 20.511C188.465 20.9352 188.465 21.3595 188.465 21.8443C188.465 24.6322 188.465 27.4807 188.465 30.2686C188.465 32.8746 189.75 34.3292 192.262 34.3898C196.41 34.4504 200.5 34.4504 204.648 34.3898C207.16 34.3292 208.445 32.9352 208.445 30.3292C208.445 27.4807 208.445 24.6928 208.445 21.8443C208.445 19.2383 207.102 17.8443 204.531 17.8443H198.455Z" fill="white"/>
<path d="M177.303 11.6614V17.8433H157.439C157.03 17.8433 156.621 17.8433 156.212 17.9039C154.401 18.2675 153.408 19.4796 153.35 21.6008C153.291 24.5705 153.291 27.5402 153.35 30.5099C153.408 33.0554 154.81 34.3281 157.322 34.3887C159.309 34.3887 161.237 34.3887 163.223 34.3887H177.303C177.303 34.5705 177.361 34.7523 177.361 34.9342C177.361 36.6311 177.361 38.2675 177.361 39.9645C177.361 40.3887 177.303 40.5705 176.835 40.5705C170.117 40.5705 163.398 40.5705 156.68 40.5705C154.518 40.6311 152.415 40.1463 150.429 39.2978C147.624 38.0857 145.696 35.2978 145.579 32.1463C145.346 29.1766 145.404 26.1463 145.463 23.1766C145.404 21.7826 145.521 20.3281 145.755 18.9342C146.456 15.2978 148.793 13.1766 152.123 12.2675C153.759 11.7826 155.453 11.6008 157.147 11.6008H176.66C176.835 11.6008 177.069 11.6614 177.303 11.6614Z" fill="white"/>
<path d="M107.728 40.5097C107.786 40.3279 107.903 40.1461 107.962 39.9643C111.876 31.8431 115.79 23.7218 119.705 15.6006C120.698 13.6006 122.1 12.0249 124.378 11.7218C126.014 11.54 127.65 11.6006 129.227 11.7824C130.863 12.0249 132.09 13.1764 132.966 14.6309C133.317 15.1764 133.609 15.7218 133.843 16.3279C137.64 24.1461 141.438 32.0249 145.177 39.8431C145.294 40.0249 145.352 40.2673 145.469 40.5097C145.235 40.5097 145.06 40.5703 144.885 40.5703C142.314 40.5703 139.685 40.5703 137.114 40.5703C136.764 40.6309 136.413 40.3885 136.297 40.0855C135.479 38.3279 134.602 36.6309 133.784 34.8734C133.668 34.5097 133.317 34.3279 132.966 34.3279C128.702 34.3279 124.378 34.3279 120.114 34.3279C119.763 34.2673 119.471 34.5097 119.354 34.8128C118.536 36.5703 117.66 38.3279 116.842 40.0249C116.725 40.2673 116.491 40.4491 116.258 40.4491C113.453 40.4491 110.708 40.4491 107.903 40.4491C107.845 40.5097 107.786 40.5097 107.728 40.5097ZM122.626 28.1461H130.571L126.598 19.9037L122.626 28.1461Z" fill="white"/>
<path d="M96.3977 11.6614C96.573 11.6614 96.7482 11.6008 96.8651 11.6008C99.1436 11.6008 101.422 11.6008 103.759 11.6008C104.226 11.6008 104.343 11.722 104.343 12.2069C104.343 21.4796 104.343 30.6917 104.343 39.9645C104.343 40.1463 104.343 40.3281 104.285 40.5099H96.3977V11.6614Z" fill="white"/>
<path d="M55.6707 11.6017H56.9559C59.2928 11.6017 61.6297 11.6017 63.9666 11.6017C64.3756 11.5411 64.7845 11.7836 64.9598 12.2078C68.0562 18.632 71.1526 25.0563 74.2489 31.5411L74.6579 32.2684C74.7747 31.9654 74.8916 31.7836 75.0084 31.6017C78.1048 25.1169 81.2596 18.6927 84.356 12.2078C84.5313 11.7836 84.8818 11.5411 85.2907 11.6017C87.8029 11.6017 90.3151 11.6017 92.8272 11.6017H93.5283C93.4114 11.8442 93.353 12.0866 93.2362 12.2684C89.3803 20.329 85.5244 28.3896 81.6101 36.4502C80.6754 38.4502 79.2733 40.0866 77.0532 40.3896C75.4174 40.632 73.7816 40.632 72.2042 40.3896C70.1594 40.1472 68.8157 38.6927 67.8809 36.8745C66.7125 34.5714 65.6609 32.2684 64.5508 29.9654C61.6881 24.026 58.8255 18.1472 56.0212 12.329C55.9628 12.1472 55.8459 11.9048 55.6707 11.6017Z" fill="white"/>
</g>
<defs>
<clipPath id="clip0_2503_15646">
<rect width="256.941" height="56" fill="white"/>
</clipPath>
</defs>
</svg>
